<?xml version="1.0" encoding="UTF-8"?>
<svg id="Layer_2" data-name="Layer 2" xmlns="http://www.w3.org/2000/svg" viewBox="0 0 440.08 431.28">
  <g id="Layer_1-2" data-name="Layer 1">
    <g>
      <path d="M192,347.25c-85.74,0-155.25-69.51-155.25-155.25S106.26,36.75,192,36.75s155.25,69.51,155.25,155.25c0,27.68-7.24,53.66-19.93,76.16l27.85,25.07c18.28-29.39,28.83-64.08,28.83-101.23C384,85.96,298.04,0,192,0S0,85.96,0,192s85.96,192,192,192c38.98,0,75.25-11.62,105.53-31.58l-27.09-26.41c-23.02,13.5-49.82,21.24-78.44,21.24Z"/>
      <path d="M440.08,397.73l-214.13-192.74,64.1-19.26-15.87-43.1-55.28,24,17.12-57.95-44.76-10.31-10.6,61.94-43.4-45.86-31.38,33.54,50.63,42.24-63.38,19.04,15.87,43.11,56.21-24.4-17.25,58.4,44.76,10.31,11.14-65.08,84.36,82.24s-.07.06-.1.08l26.49,25.83s.07-.06.1-.09l93.98,91.61,31.38-33.54Z"/>
    </g>
  </g>
</svg>